<svg width="27" height="26" viewBox="0 0 27 26" fill="none" xmlns="http://www.w3.org/2000/svg">
<path d="M16.705 17.6183V25H21.8727C24.6553 25 25.4503 22.8202 25.5 21.7303C25.4503 16.8422 25.3311 6.51108 25.2516 4.29163C25.1721 2.07218 23.4959 1.18703 22.6677 1.02188C17.5994 1.00537 6.8764 0.98225 4.53106 1.02188C2.18571 1.06152 1.53313 3.21823 1.5 4.29163V21.7303C1.5 23.9497 3.5207 24.8349 4.53106 25H12.0839V17.6183H9.20186V13.0605H12.0839V9.84028C12.4416 6.51109 15.148 5.64576 16.4565 5.62925H20.8789V10.2366H16.705V13.0605H20.8789L20.0839 17.6183H16.705Z" stroke="black" stroke-width="2"/>
</svg>
